<?xml version="1.0" encoding="utf-8"?>
<!-- Generator: Adobe Illustrator 25.0.1, SVG Export Plug-In . SVG Version: 6.00 Build 0)  -->
<svg version="1.1" id="Layer_1" xmlns="http://www.w3.org/2000/svg" xmlns:xlink="http://www.w3.org/1999/xlink" x="0px" y="0px"
	 viewBox="0 0 25 21.69" style="enable-background:new 0 0 25 21.69;" xml:space="preserve">
<style type="text/css">
	.st0{fill:#BC6328;}
</style>
<path class="st0" d="M6.65,0.79c-0.16,0-0.33,0.01-0.49,0.02c-1.31,0.1-2.59,0.61-3.6,1.45c-1.01,0.84-1.76,2-2.1,3.27
	C0.12,6.78,0.17,8.12,0.51,9.36c0.34,1.25,0.97,2.4,1.75,3.43c1.57,2.06,3.71,3.58,5.84,5.05c1.46,1.01,2.93,2.01,4.4,3
	c1.47-0.99,2.94-1.99,4.39-3c2.13-1.47,4.27-2.99,5.84-5.05c0.78-1.03,1.41-2.19,1.75-3.43c0.34-1.25,0.39-2.58,0.06-3.83
	c-0.34-1.27-1.09-2.43-2.1-3.27c-1.01-0.84-2.29-1.35-3.6-1.45c-1.31-0.1-2.65,0.22-3.78,0.9c-1.13,0.68-2.03,1.72-2.56,2.93
	c-0.53-1.21-1.43-2.24-2.56-2.93C8.95,1.12,7.8,0.8,6.65,0.79z"/>
</svg>
