<?xml version="1.0" encoding="utf-8"?>
<!-- Generator: Adobe Illustrator 25.0.0, SVG Export Plug-In . SVG Version: 6.00 Build 0)  -->
<svg version="1.1" id="Layer_1" xmlns="http://www.w3.org/2000/svg" xmlns:xlink="http://www.w3.org/1999/xlink" x="0px" y="0px"
	 viewBox="0 0 350 70.33" style="enable-background:new 0 0 350 70.33;" xml:space="preserve">
<style type="text/css">
	.st0{fill:#D79A2B;}
	.st1{fill:#5B6670;}
	.st2{fill:#BB6125;}
</style>
<g>
	<path class="st0" d="M278.84,28.48c-0.41-0.02-1.11,0.39-1.93,1.41c-0.58,0.71-1.93,2.74-2.68,4.11c-0.66,1.2-0.94,1.78-1.24,1.78
		c-0.19,0-0.32-0.41-0.32-0.64c0-0.11,0.15-0.54,0.41-1.25l1.63-4.28c0.21-0.55,0.28-0.83,0.04-0.83c-0.38,0-0.75,0.07-1.35,0.86
		c-0.1,0.11-0.24,0.11-0.28-0.07c-0.02-0.23,0.15-0.73,0.32-0.94c0.41-0.52,0.9-0.92,1.75-0.94c0.51,0,1.01,0.22,0.71,1.01
		l-1.01,2.77c-0.07,0.19,0.09,0.21,0.17,0.07c1.52-2.63,3.11-3.86,4.33-3.86c0.73,0,1.29,0.64,0.62,2.47l-0.49,1.31
		c-0.08,0.19,0.09,0.21,0.17,0.07c1.52-2.63,3.11-3.86,4.33-3.86c0.73,0,1.33,0.66,0.62,2.47l-1.41,3.68
		c-0.21,0.49-0.13,0.68,0.09,0.68c0.6,0,1.8-1.09,1.99-1.28c0.02-0.02,0.04-0.02,0.06-0.02c0.07,0,0.15,0.07,0.15,0.17
		c0,0.09-0.04,0.21-0.08,0.26c-0.97,1.18-2.04,2.06-3.22,2.06c-0.38,0-0.66-0.49-0.49-0.94l1.97-5.12c0.41-1.09,0.07-1.17-0.22-1.18
		c-0.41-0.02-1.11,0.39-1.93,1.41c-0.58,0.71-1.93,2.74-2.68,4.11c-0.66,1.2-1.18,1.78-1.48,1.78c-0.19,0-0.32-0.41-0.32-0.64
		c0-0.11,0.15-0.54,0.41-1.25l1.59-4.22C279.48,28.58,279.14,28.5,278.84,28.48"/>
	<path class="st0" d="M292.51,28.26c-1.5,0-3.26,3.66-3.26,5.4c0,0.94,0.17,1.5,0.8,1.5c1.5,0,3.27-3.66,3.27-5.4
		C293.32,28.82,293.15,28.26,292.51,28.26 M289.83,35.72c-0.75,0-1.78-0.79-1.78-2.21c0-2.25,1.87-5.81,4.69-5.81
		c0.75,0,1.78,0.79,1.78,2.21C294.52,32.16,292.64,35.72,289.83,35.72"/>
	<path class="st0" d="M298.38,35.12c0.99,0,2.76-1.67,3.73-2.94c0.68-0.88,1.07-1.99,1.07-3.04c0-0.49-0.34-0.98-0.83-0.98
		c-1.16,0-4.46,4-4.45,6.15C297.91,34.82,298.02,35.12,298.38,35.12 M303.52,34.52c0.6,0,1.8-1.09,1.99-1.28
		c0.02-0.02,0.04-0.02,0.06-0.02c0.07,0,0.17,0.07,0.17,0.17c0,0.1-0.06,0.21-0.1,0.27c-0.97,1.18-1.87,2.06-3.06,2.06
		c-0.38,0-0.49-0.52-0.49-0.94c0-0.77,0.11-1.35,0.26-1.87c0.06-0.21-0.04-0.28-0.11-0.19c-1.28,1.65-2.85,3-4.52,3
		c-0.58,0-1.12-0.49-1.12-1.14c0-1.58,1.18-3.81,2.76-5.32c1.01-1,2.27-1.67,3.19-1.67c0.24,0,0.62,0.21,0.77,0.49
		c0.11,0.23,0.21,0.19,0.26,0.04l1.33-4.11c0.34-1.05-0.84-0.94-0.84-1.2c0-0.28,0.35-0.3,0.63-0.34c0.34-0.06,1.48-0.22,1.67-0.22
		c0.13,0,0.11,0.32,0.06,0.52l-3.1,10.69C303.18,33.96,303.29,34.52,303.52,34.52"/>
	<path class="st0" d="M309.93,30.73c0,0.11,0.04,0.11,0.13,0.11c0.56,0,2.97-0.51,2.97-2.01c0-0.34-0.15-0.6-0.52-0.6
		C311.47,28.24,309.93,30.17,309.93,30.73 M307.93,33.62c0-2.25,1.91-5.93,4.86-5.93c1.01,0,1.39,0.41,1.39,1.18
		c0,1.5-2.98,2.51-4.29,2.51c-0.15,0-0.21,0.04-0.28,0.19c-0.26,0.56-0.32,1-0.32,1.78c0,0.94,0.3,1.45,0.94,1.45
		c0.9,0,1.65-0.69,2.03-1.18c0.11-0.15,0.24-0.21,0.34-0.21c0.11,0,0.19,0.07,0.19,0.19c0,0.04,0,0.09-0.04,0.15
		c-0.75,1.22-1.89,1.99-3.21,1.99C308.79,35.74,307.93,35.04,307.93,33.62"/>
	<path class="st0" d="M317.81,34c-0.66,1.2-1.05,1.78-1.35,1.78c-0.19,0-0.32-0.41-0.32-0.64c0-0.11,0.15-0.55,0.41-1.26l1.63-4.28
		c0.21-0.54,0.28-0.83,0.04-0.83c-0.37,0-0.75,0.08-1.35,0.86c-0.09,0.11-0.24,0.11-0.28-0.07c-0.02-0.23,0.15-0.73,0.32-0.94
		c0.41-0.52,0.9-0.94,1.74-0.94c0.52,0,0.84,0.32,0.84,0.84c0,0.69-0.47,1.75-1.05,2.95c-0.1,0.19,0,0.21,0.07,0.07
		c1.82-2.76,3.06-3.96,3.77-3.96c0.56,0,0.94,0.49,0.94,0.99c0,0.51-0.26,1.46-0.79,1.46c-0.28,0-0.36-0.32-0.38-0.66
		c-0.02-0.38-0.1-0.77-0.36-0.77c-0.24,0-0.66,0.43-1.28,1.24C319.87,30.6,318.56,32.63,317.81,34"/>
	<path class="st0" d="M331.41,29.66c0.41-1.09,0.07-1.16-0.23-1.18c-0.41-0.02-1.11,0.4-1.93,1.41c-0.58,0.71-1.93,2.74-2.68,4.11
		c-0.66,1.2-0.94,1.78-1.24,1.78c-0.19,0-0.32-0.41-0.32-0.64c0-0.11,0.15-0.55,0.41-1.26l1.63-4.28c0.21-0.54,0.28-0.83,0.04-0.83
		c-0.37,0-0.75,0.07-1.35,0.86c-0.09,0.11-0.24,0.11-0.28-0.07c-0.02-0.23,0.15-0.73,0.32-0.94c0.41-0.52,0.9-0.92,1.74-0.94
		c0.51,0,1.01,0.23,0.71,1.01l-1.01,2.77c-0.08,0.19,0.09,0.21,0.17,0.08c1.52-2.63,3.11-3.87,4.33-3.87c0.73,0,1.31,0.66,0.62,2.48
		l-1.41,3.67c-0.21,0.49-0.13,0.68,0.09,0.68c0.6,0,1.8-1.09,1.99-1.28c0.02-0.02,0.04-0.02,0.06-0.02c0.07,0,0.15,0.07,0.15,0.17
		c0,0.1-0.04,0.21-0.07,0.27c-0.97,1.18-2.04,2.06-3.22,2.06c-0.38,0-0.66-0.49-0.49-0.94L331.41,29.66z"/>
	<path class="st0" d="M278.84,42.98c-0.41-0.02-1.11,0.39-1.93,1.41c-0.58,0.71-1.93,2.74-2.68,4.11c-0.66,1.2-0.94,1.78-1.24,1.78
		c-0.19,0-0.32-0.41-0.32-0.64c0-0.11,0.15-0.54,0.41-1.25l1.63-4.28c0.21-0.55,0.28-0.83,0.04-0.83c-0.38,0-0.75,0.07-1.35,0.86
		c-0.1,0.11-0.24,0.11-0.28-0.07c-0.02-0.23,0.15-0.73,0.32-0.94c0.41-0.52,0.9-0.92,1.75-0.94c0.51,0,1.01,0.22,0.71,1.01
		l-1.01,2.78c-0.07,0.19,0.09,0.21,0.17,0.07c1.52-2.63,3.11-3.86,4.33-3.86c0.73,0,1.29,0.64,0.62,2.47l-0.49,1.31
		c-0.08,0.19,0.09,0.21,0.17,0.07c1.52-2.63,3.11-3.86,4.33-3.86c0.73,0,1.33,0.66,0.62,2.47l-1.41,3.68
		c-0.21,0.49-0.13,0.68,0.09,0.68c0.6,0,1.8-1.09,1.99-1.28c0.02-0.02,0.04-0.02,0.06-0.02c0.07,0,0.15,0.07,0.15,0.17
		c0,0.09-0.04,0.21-0.08,0.26c-0.97,1.18-2.04,2.06-3.22,2.06c-0.38,0-0.66-0.49-0.49-0.94l1.97-5.12c0.41-1.09,0.07-1.16-0.22-1.18
		c-0.41-0.02-1.11,0.39-1.93,1.41c-0.58,0.71-1.93,2.74-2.68,4.11c-0.66,1.2-1.18,1.78-1.48,1.78c-0.19,0-0.32-0.41-0.32-0.64
		c0-0.11,0.15-0.54,0.41-1.25l1.59-4.22C279.48,43.07,279.14,42.99,278.84,42.98"/>
	<path class="st0" d="M290,45.23c0,0.11,0.04,0.11,0.13,0.11c0.56,0,2.97-0.51,2.97-2.01c0-0.34-0.15-0.6-0.52-0.6
		C291.53,42.73,290,44.66,290,45.23 M287.99,48.11c0-2.25,1.91-5.93,4.86-5.93c1.01,0,1.39,0.41,1.39,1.18
		c0,1.5-2.98,2.51-4.29,2.51c-0.15,0-0.21,0.04-0.28,0.19c-0.26,0.56-0.32,1-0.32,1.78c0,0.94,0.3,1.45,0.94,1.45
		c0.9,0,1.65-0.69,2.03-1.18c0.11-0.15,0.24-0.21,0.34-0.21c0.11,0,0.19,0.07,0.19,0.19c0,0.04,0,0.09-0.04,0.15
		c-0.75,1.22-1.89,1.99-3.21,1.99C288.85,50.23,287.99,49.54,287.99,48.11"/>
	<path class="st0" d="M297.73,49.61c0.99,0,2.76-1.67,3.73-2.94c0.68-0.88,1.07-1.99,1.07-3.04c0-0.49-0.34-0.98-0.83-0.98
		c-1.16,0-4.46,4-4.45,6.15C297.25,49.32,297.37,49.61,297.73,49.61 M302.86,49.01c0.6,0,1.8-1.09,1.99-1.28
		c0.02-0.02,0.04-0.02,0.06-0.02c0.07,0,0.17,0.07,0.17,0.17c0,0.1-0.06,0.21-0.1,0.27c-0.97,1.18-1.87,2.06-3.06,2.06
		c-0.37,0-0.49-0.53-0.49-0.94c0-0.77,0.11-1.35,0.26-1.87c0.06-0.21-0.04-0.28-0.11-0.19c-1.28,1.65-2.85,3-4.52,3
		c-0.58,0-1.12-0.49-1.12-1.14c0-1.58,1.18-3.81,2.76-5.33c1.01-0.99,2.27-1.67,3.19-1.67c0.24,0,0.62,0.21,0.77,0.49
		c0.11,0.22,0.21,0.19,0.26,0.04l1.33-4.11c0.34-1.05-0.84-0.94-0.84-1.2c0-0.28,0.35-0.3,0.63-0.34c0.34-0.06,1.48-0.22,1.67-0.22
		c0.13,0,0.11,0.32,0.06,0.52l-3.1,10.69C302.53,48.45,302.64,49.01,302.86,49.01"/>
	<path class="st0" d="M312,39.26c0,0.56-0.47,1.07-1.03,1.07c-0.38,0-0.66-0.36-0.66-0.73c0-0.6,0.45-1.14,1.05-1.14
		C311.75,38.45,312,38.87,312,39.26 M308.98,44.89c0.15-0.43,0.24-0.9,0-0.9c-0.21,0-0.69,0.17-1.26,0.43
		c-0.07,0.04-0.28-0.02-0.28-0.1c0-0.09,0.02-0.17,0.17-0.28c1.24-0.88,1.91-1.29,3.05-1.93c0.11-0.06,0.36-0.13,0.36,0.07
		c0,0.26-0.07,0.51-0.19,0.83l-1.93,5.32c-0.07,0.21-0.13,0.39-0.13,0.55c0,0.18,0.09,0.3,0.22,0.3c0.6,0,1.91-1.25,2.1-1.44
		c0.02-0.02,0.04-0.04,0.07-0.04c0.06,0,0.11,0.04,0.11,0.1c0,1.44-2.42,2.42-3.08,2.42c-0.6,0-0.81-0.3-0.81-0.66
		c0-0.43,0.06-0.6,0.23-1.03L308.98,44.89z"/>
	<path class="st0" d="M318.97,43.71c-0.43,0-0.32-0.88-1.22-0.88c-1.2,0-2.59,3.23-2.59,5.29c0,0.6,0.17,1.35,0.77,1.35
		c0.9,0,1.39-0.56,1.91-1.18c0.11-0.15,0.22-0.17,0.32-0.17c0.11,0,0.08,0.15,0.08,0.26c0,0.23-1.13,1.86-2.93,1.86
		c-0.73,0-1.52-0.43-1.5-1.86c0-2.25,1.5-6.19,4.69-6.19c0.71,0,1.03,0.55,1.03,0.73C319.54,43.16,319.24,43.71,318.97,43.71"/>
	<path class="st0" d="M325.91,39.26c0,0.56-0.47,1.07-1.03,1.07c-0.38,0-0.66-0.36-0.66-0.73c0-0.6,0.45-1.14,1.05-1.14
		C325.67,38.45,325.91,38.87,325.91,39.26 M322.89,44.89c0.15-0.43,0.24-0.9,0-0.9c-0.21,0-0.69,0.17-1.26,0.43
		c-0.07,0.04-0.28-0.02-0.28-0.1c0-0.09,0.02-0.17,0.17-0.28c1.24-0.88,1.91-1.29,3.05-1.93c0.11-0.06,0.36-0.13,0.36,0.07
		c0,0.26-0.07,0.51-0.19,0.83l-1.93,5.32c-0.07,0.21-0.13,0.39-0.13,0.55c0,0.18,0.09,0.3,0.22,0.3c0.6,0,1.91-1.25,2.1-1.44
		c0.02-0.02,0.04-0.04,0.07-0.04c0.06,0,0.11,0.04,0.11,0.1c0,1.44-2.42,2.42-3.08,2.42c-0.6,0-0.81-0.3-0.81-0.66
		c0-0.43,0.06-0.6,0.23-1.03L322.89,44.89z"/>
	<path class="st0" d="M334.37,44.16c0.41-1.09,0.07-1.16-0.23-1.18c-0.41-0.02-1.11,0.39-1.93,1.41c-0.58,0.71-1.93,2.74-2.68,4.11
		c-0.66,1.2-0.94,1.78-1.24,1.78c-0.19,0-0.32-0.41-0.32-0.64c0-0.11,0.15-0.55,0.41-1.26l1.63-4.28c0.21-0.54,0.28-0.83,0.04-0.83
		c-0.37,0-0.75,0.07-1.35,0.86c-0.09,0.11-0.24,0.11-0.28-0.08c-0.02-0.22,0.15-0.73,0.32-0.94c0.41-0.52,0.9-0.92,1.74-0.94
		c0.51,0,1.01,0.23,0.71,1.01l-1.01,2.77c-0.08,0.19,0.09,0.21,0.17,0.08c1.52-2.63,3.11-3.87,4.33-3.87c0.73,0,1.31,0.66,0.62,2.48
		l-1.41,3.67c-0.21,0.49-0.13,0.68,0.09,0.68c0.6,0,1.8-1.09,1.99-1.28c0.02-0.02,0.04-0.02,0.06-0.02c0.07,0,0.15,0.07,0.15,0.17
		c0,0.1-0.04,0.21-0.07,0.27c-0.97,1.18-2.04,2.06-3.22,2.06c-0.38,0-0.66-0.49-0.49-0.94L334.37,44.16z"/>
	<path class="st0" d="M340.67,45.23c0,0.11,0.04,0.11,0.13,0.11c0.56,0,2.97-0.51,2.97-2.01c0-0.34-0.15-0.6-0.52-0.6
		C342.21,42.73,340.67,44.66,340.67,45.23 M338.67,48.11c0-2.25,1.91-5.93,4.86-5.93c1.01,0,1.39,0.41,1.39,1.18
		c0,1.5-2.98,2.51-4.29,2.51c-0.15,0-0.21,0.04-0.28,0.19c-0.26,0.56-0.32,1-0.32,1.78c0,0.94,0.3,1.45,0.94,1.45
		c0.9,0,1.65-0.69,2.03-1.18c0.11-0.15,0.24-0.21,0.34-0.21c0.11,0,0.19,0.07,0.19,0.19c0,0.04,0,0.09-0.04,0.15
		c-0.75,1.22-1.89,1.99-3.21,1.99C339.53,50.23,338.67,49.54,338.67,48.11"/>
	<path class="st1" d="M34.27,39.09c-0.43-7.81-3.4-12.39-9-12.39c-5.18,0-9.68,4.07-10.53,12.39H34.27z M43.1,42.06H14.58v0.68
		c0.17,11.29,5.77,18.08,13.58,18.08c5.69,0,8.75-1.87,12.57-5.94l2.29,1.95c-3.99,5.69-9.68,9.51-17.4,9.51
		c-11.12,0-18.93-8.07-18.93-20.38c0-13.41,9.76-22.58,19.78-22.58C37.41,23.39,43.19,30.52,43.1,42.06"/>
	<path class="st1" d="M210.28,39.09c-0.43-7.81-3.4-12.39-9-12.39c-5.18,0-9.68,4.07-10.53,12.39H210.28z M219.11,42.06h-28.53v0.68
		c0.17,11.29,5.77,18.08,13.59,18.08c5.69,0,8.74-1.87,12.56-5.94l2.29,1.95c-3.99,5.69-9.68,9.51-17.4,9.51
		c-11.12,0-18.93-8.07-18.93-20.38c0-13.41,9.76-22.58,19.78-22.58C213.42,23.39,219.19,30.52,219.11,42.06"/>
	<path class="st1" d="M155.44,61.67c-6.29,0-10.61-3.56-10.61-11.21v-18c2.38-2.04,5.09-3.14,8.83-3.14
		c8.24,0,13.59,6.63,13.59,17.92C167.24,57.18,162.32,61.67,155.44,61.67 M156.88,23.56c-5.35,0-9.25,2.63-12.06,5.35V7.81v-4.8
		V1.99l-16.24,1.76v4.06l8.6,2.01c0.05,1.53,0.09,3.1,0.09,4.4v52.13h3.51l1.33-3.06c3.14,1.44,6.71,2.38,10.95,2.38
		c11.72,0,21.06-8.75,21.06-22.59C174.12,30.69,166.31,23.56,156.88,23.56"/>
	<path class="st1" d="M260.92,25.45c-0.06-0.05-0.12-0.09-0.19-0.11c-6.02-2.29-12.6-0.23-17.91,5.44v-1.12l0.03-0.01v-5.38
		l-0.47,0.04l-0.05-0.04c-1.4,0.16-2.8,0.22-4.21,0.35c-0.61,0.06-1.21,0.11-1.8,0.14l-0.72,0.16l-7.04,0.64v4.09l5.52,1.35
		c0.96,0.94,1.19,2.26,1.19,4.78v17.4c0,7.3-0.6,8.41-4.5,8.83l-2.2,0.26v3.06c2.12,0,6.71-0.09,10.53-0.09
		c3.73,0,10.53,0.09,12.57,0.09v-3.06l-3.82-0.26c-4.16-0.25-5.01-1.27-5.01-8.83V40.63V37.4c2.49-4.5,5.66-6.11,8.04-6.84
		c1.74,0.58,2.52,1.82,3.95,2.31c2.97,1.02,5.2,0.66,6.71-1.53C263.03,29.14,262.74,27.05,260.92,25.45"/>
	<path class="st1" d="M119,59.35v-6.16v-4.17V36.63c0-8.66-4.67-13.08-12.4-13.08c-5.35,0-9.42,2.72-13.58,6.62
		c-2.04-4.33-5.09-6.62-11.46-6.62c-5.18,0-8.32,2.38-12.65,6.11v-0.72l0.02-0.01v-5.39l-1.26,0.12l-0.04-0.03l-0.26,0.06
		l-12.73,1.15v4.1l3.58,0.88c2.62,1.13,3.12,2.24,3.12,5.96c0,0-0.02,2.5-0.08,5.92v17.66l-6.63,1.43v4.54h10.19h0.23h10.2v-4.54
		l-6.33-1.36v-4.29c-0.01-0.6-0.02-1.24-0.02-1.95V33.83c3.14-3.31,6.03-4.84,9.76-4.84c5.01,0,7.73,2.89,7.73,10.02v11.68v2.5v6.22
		l-6.39,1.37v4.54h10.2h0.23h10.19v-4.54l-6.67-1.43v-6.16v-3.2V33.92c3.14-3.4,6.03-4.92,9.76-4.92c5.01,0,7.72,2.89,7.72,10.02
		v8.19v5.98v6.22l-6.39,1.37v4.54h10.19h0.23h10.2v-4.54L119,59.35z"/>
	<path class="st2" d="M274.43,59.55c-0.05,0.45-0.09,2.36,1.3,2.91c-0.74-2.36,0.26-5.3,2.9-6.88c-0.06,1.84,0.55,3.33,1.77,4.21
		c1.65,1.18,2.22,2.98,1.53,4.83c-0.17,0.47-0.46,0.93-0.81,1.29c-1.5,1.56-4.39,1.7-6.12,0.35
		C273.18,64.83,272.76,61.85,274.43,59.55"/>
</g>
</svg>
