<svg id="Layer_1" data-name="Layer 1" xmlns="http://www.w3.org/2000/svg" xmlns:xlink="http://www.w3.org/1999/xlink" width="21.1176" height="26.0835" viewBox="0 0 21.1176 26.0835"><defs><style>.cls-1,.cls-4{fill:none;}.cls-2{clip-path:url(#clip-path);}.cls-3{fill:#d59929;}.cls-4{stroke:#fff;stroke-miterlimit:10;stroke-width:0.318px;}</style><clipPath id="clip-path" transform="translate(-0.0001 -0.0002)"><rect class="cls-1" y="-0.0005" width="21.117" height="26.084"/></clipPath></defs><g class="cls-2"><path class="cls-3" d="M2.3385,8.9136c-.106,1.012-.186,5.266,2.91,6.508-1.663-5.263.578-11.845,6.474-15.385-.132,4.1,1.235,7.45,3.958,9.4a8.9,8.9,0,0,1,3.429,10.802,8.4928,8.4928,0,0,1-1.8,2.883c-3.365,3.475-9.804,3.794-13.669.775-4.082-3.187-5.031-9.833-1.302-14.983" transform="translate(-0.0001 -0.0002)"/><path class="cls-4" d="M4.2012,8.4362c-.176.997-.551,5.215,2.438,6.664-1.286-5.341,1.396-11.721,7.497-14.826-.416,4.061.709,7.483,3.278,9.607a8.8558,8.8558,0,0,1,2.655,10.963,8.4616,8.4616,0,0,1-1.988,2.737c-3.582,3.218-9.999,3.087-13.628-.178C.6212,19.9542.14,13.29,4.2012,8.4362Z" transform="translate(-0.0001 -0.0002)"/></g></svg>